<!-- Generator: Adobe Illustrator 21.0.2, SVG Export Plug-In  -->
<svg version="1.1"
	 xmlns="http://www.w3.org/2000/svg" xmlns:xlink="http://www.w3.org/1999/xlink" xmlns:a="http://ns.adobe.com/AdobeSVGViewerExtensions/3.0/"
	 x="0px" y="0px" width="245.384px" height="98.461px" viewBox="0 0 245.384 98.461"
	 style="enable-background:new 0 0 245.384 98.461;" xml:space="preserve">
<style type="text/css">
	.st0{fill:#FFFFFF;}
</style>
<defs>
</defs>
<g>
	<g>
		<path class="st0" d="M109.963,30.867V7.429h2.538l4.312,10.989c0.974,2.503,2.19,5.633,2.99,8.172h0.069
			c-0.208-3.686-0.312-6.711-0.312-10.78v-8.38h2.399v23.438h-2.538L114.971,19.6c-0.939-2.365-1.948-5.042-2.782-7.963h-0.069
			c0.208,3.13,0.277,6.121,0.277,11.128v8.103H109.963z"/>
		<path class="st0" d="M129.542,30.867v-9.911l-5.146-13.527h2.816l2.087,5.877c0.591,1.634,1.217,3.477,1.738,5.286h0.069
			c0.487-1.809,1.078-3.582,1.704-5.39l1.982-5.772h2.816l-5.39,13.423v10.015H129.542z"/>
		<path class="st0" d="M139.836,7.429h2.678v11.128h0.069c0.522-0.974,1.009-1.913,1.461-2.817l4.382-8.311h2.956l-5.738,10.015
			l5.877,13.423h-2.887l-4.799-11.302l-1.321,2.26v9.042h-2.678V7.429z"/>
		<path class="st0" d="M165.467,18.974c0,8.798-3.025,12.171-6.781,12.171c-3.896,0-6.503-4.138-6.503-12.032
			c0-7.755,2.781-11.962,6.885-11.962C163.066,7.15,165.467,11.497,165.467,18.974z M154.513,4.055c0-0.939,0.626-1.634,1.495-1.634
			c0.904,0,1.495,0.695,1.495,1.634c0,0.974-0.591,1.6-1.495,1.6C155.139,5.655,154.513,5.029,154.513,4.055z M154.964,19.147
			c0,4.834,0.939,9.633,3.896,9.633c3.025,0,3.825-5.112,3.825-9.702c0-4.382-0.8-9.563-3.86-9.563
			C155.903,9.515,154.964,14.383,154.964,19.147z M160.111,4.055c0-0.939,0.66-1.634,1.495-1.634c0.904,0,1.495,0.695,1.495,1.634
			c0,0.974-0.591,1.6-1.495,1.6C160.771,5.655,160.111,5.029,160.111,4.055z"/>
		<path class="st0" d="M168.667,7.776c1.078-0.278,2.364-0.452,3.895-0.452c2.156,0,3.965,0.521,5.182,1.739
			c1.147,1.113,1.738,2.817,1.738,4.833c0,2.156-0.521,3.617-1.426,4.799c-1.286,1.739-3.442,2.608-5.529,2.608
			c-0.451,0-0.8,0-1.182-0.035v9.598h-2.678V7.776z M171.345,19.008c0.312,0.07,0.591,0.104,1.043,0.104
			c2.643,0,4.416-1.739,4.416-5.042c0-2.399-1.008-4.555-3.964-4.555c-0.626,0-1.147,0.069-1.495,0.174V19.008z"/>
		<path class="st0" d="M185.221,7.429v23.438h-2.678V7.429H185.221z"/>
		<path class="st0" d="M189.463,30.867V7.429h2.539l4.312,10.989c0.974,2.503,2.191,5.633,2.991,8.172h0.069
			c-0.209-3.686-0.313-6.711-0.313-10.78v-8.38h2.4v23.438h-2.539L194.471,19.6c-0.938-2.365-1.947-5.042-2.782-7.963h-0.069
			c0.209,3.13,0.278,6.121,0.278,11.128v8.103H189.463z"/>
		<path class="st0" d="M217.18,30.275c-1.009,0.417-2.678,0.8-4.173,0.8c-2.052,0-3.964-0.556-5.529-2.295
			c-1.704-1.809-2.852-5.042-2.816-9.32c0.034-9.111,4.694-12.241,8.833-12.241c1.46,0,2.607,0.278,3.338,0.661l-0.591,2.295
			c-0.626-0.313-1.461-0.557-2.713-0.557c-2.921,0-6.086,2.33-6.086,9.598c0,7.233,2.748,9.563,5.564,9.563
			c0.904,0,1.426-0.174,1.635-0.278v-7.65h-3.025v-2.226h5.563V30.275z"/>
		<path class="st0" d="M220.275,27.772c0.8,0.521,2.191,0.938,3.373,0.938c2.435,0,3.896-1.6,3.896-3.964
			c0-2.156-1.252-3.477-3.096-4.868c-1.843-1.287-4.416-3.478-4.416-6.503c0-3.547,2.469-6.155,6.189-6.155
			c1.461,0,2.748,0.452,3.304,0.87l-0.66,2.295c-0.592-0.417-1.565-0.8-2.782-0.8c-2.295,0-3.373,1.739-3.373,3.338
			c0,2.33,1.217,3.234,3.442,4.834c2.817,1.982,4.068,4.138,4.068,6.746c0,4.034-2.852,6.572-6.572,6.572
			c-1.6,0-3.304-0.521-3.964-1.008L220.275,27.772z"/>
	</g>
	<g>
		<path class="st0" d="M109.441,58.697c0.8,0.521,2.19,0.938,3.373,0.938c2.434,0,3.895-1.6,3.895-3.964
			c0-2.156-1.252-3.478-3.095-4.869c-1.844-1.287-4.417-3.478-4.417-6.503c0-3.547,2.47-6.155,6.19-6.155
			c1.46,0,2.747,0.452,3.304,0.87l-0.661,2.295c-0.591-0.417-1.564-0.8-2.782-0.8c-2.295,0-3.373,1.739-3.373,3.338
			c0,2.33,1.218,3.234,3.443,4.834c2.816,1.982,4.068,4.138,4.068,6.746c0,4.034-2.852,6.572-6.572,6.572
			c-1.6,0-3.304-0.521-3.965-1.008L109.441,58.697z"/>
		<path class="st0" d="M122.518,38.354h2.678v11.128h0.069c0.521-0.974,1.009-1.913,1.461-2.817l4.381-8.311h2.956l-5.737,10.015
			l5.877,13.423h-2.887l-4.799-11.302l-1.321,2.26v9.042h-2.678V38.354z"/>
		<path class="st0" d="M139.627,54.768l-1.565,7.024h-2.573l5.355-23.438h2.956l5.216,23.438h-2.643l-1.565-7.024H139.627z
			 M144.46,52.611l-1.217-5.946c-0.348-1.669-0.661-3.617-0.938-5.355h-0.14c-0.278,1.773-0.626,3.791-0.938,5.355l-1.218,5.946
			H144.46z"/>
		<path class="st0" d="M152.599,40.753h-4.277v-2.399h11.232v2.399h-4.277v21.039h-2.678V40.753z"/>
		<path class="st0" d="M170.717,50.664h-5.877v8.798h6.677v2.33h-9.354V38.354h8.938v2.33h-6.26v7.72h5.877V50.664z"/>
		<path class="st0" d="M174.474,38.702c1.112-0.278,2.434-0.452,3.93-0.452c2.121,0,3.93,0.452,5.181,1.634
			c1.009,0.939,1.53,2.33,1.53,3.999c0,2.399-1.321,4.312-3.616,5.216v0.07c2.712,0.73,4.347,2.921,4.347,5.981
			c0,1.947-0.626,3.512-1.669,4.66c-1.321,1.495-3.513,2.121-6.19,2.121c-1.738,0-2.781-0.104-3.512-0.244V38.702z M177.151,48.299
			h1.217c2.19,0,4.068-1.669,4.068-4.138c0-2.156-1.008-3.825-3.859-3.825c-0.626,0-1.113,0.069-1.426,0.174V48.299z
			 M177.151,59.671c0.312,0.069,0.765,0.139,1.355,0.139c2.782,0,4.591-1.635,4.591-4.66c0-3.234-2.261-4.764-4.765-4.799h-1.182
			V59.671z"/>
		<path class="st0" d="M201.251,49.899c0,8.798-3.025,12.171-6.781,12.171c-3.896,0-6.503-4.138-6.503-12.032
			c0-7.755,2.781-11.962,6.885-11.962C198.851,38.076,201.251,42.422,201.251,49.899z M190.748,50.073
			c0,4.834,0.939,9.633,3.896,9.633c3.025,0,3.825-5.112,3.825-9.702c0-4.382-0.8-9.563-3.86-9.563
			C191.688,40.44,190.748,45.309,190.748,50.073z"/>
		<path class="st0" d="M206.573,54.768l-1.565,7.024h-2.573l5.355-23.438h2.956l5.216,23.438h-2.643l-1.565-7.024H206.573z
			 M211.406,52.611l-1.217-5.946c-0.348-1.669-0.661-3.617-0.938-5.355h-0.14c-0.278,1.773-0.626,3.791-0.938,5.355l-1.218,5.946
			H211.406z"/>
		<path class="st0" d="M218.884,38.702c1.147-0.313,2.539-0.452,3.86-0.452c2.33,0,4.068,0.487,5.286,1.669
			c1.147,1.183,1.634,2.748,1.634,4.59c0,2.991-1.391,4.938-3.756,6.016v0.07c1.739,0.521,2.644,2.19,3.165,5.251
			c0.521,3.234,1.009,5.216,1.321,5.946h-2.713c-0.348-0.695-0.8-2.921-1.251-5.808c-0.522-3.199-1.53-4.416-3.825-4.416h-1.044
			v10.224h-2.678V38.702z M221.562,49.517h1.113c2.573,0,4.277-1.878,4.277-4.695c0-2.712-1.113-4.381-3.999-4.417
			c-0.522,0-1.044,0.035-1.392,0.139V49.517z"/>
		<path class="st0" d="M233.108,38.702c1.043-0.313,2.26-0.452,3.616-0.452c2.469,0,4.208,0.626,5.494,1.773
			c1.809,1.565,3.165,4.59,3.165,9.494c0,5.355-1.321,8.276-2.816,9.876c-1.53,1.739-3.756,2.539-6.469,2.539
			c-1.078,0-2.19-0.07-2.99-0.244V38.702z M235.786,59.601c0.382,0.07,0.765,0.07,1.008,0.07c2.956,0,5.808-2.122,5.808-10.085
			c0-5.912-1.809-9.146-5.563-9.146c-0.418,0-0.904,0.035-1.252,0.139V59.601z"/>
	</g>
	<g>
		<path class="st0" d="M109.963,69.279h8.937v2.33h-6.259v8.207h5.842v2.26h-5.842v10.641h-2.678V69.279z"/>
		<path class="st0" d="M134.271,80.824c0,8.798-3.025,12.171-6.781,12.171c-3.895,0-6.503-4.138-6.503-12.032
			c0-7.755,2.782-11.962,6.886-11.962C131.871,69,134.271,73.347,134.271,80.824z M123.316,65.905c0-0.939,0.626-1.634,1.495-1.634
			c0.904,0,1.495,0.695,1.495,1.634c0,0.974-0.591,1.6-1.495,1.6C123.942,67.505,123.316,66.879,123.316,65.905z M123.769,80.998
			c0,4.834,0.938,9.633,3.895,9.633c3.025,0,3.825-5.112,3.825-9.702c0-4.382-0.8-9.563-3.859-9.563
			C124.707,71.365,123.769,76.233,123.769,80.998z M128.915,65.905c0-0.939,0.661-1.634,1.495-1.634
			c0.904,0,1.496,0.695,1.496,1.634c0,0.974-0.592,1.6-1.496,1.6C129.576,67.505,128.915,66.879,128.915,65.905z"/>
		<path class="st0" d="M137.472,69.626c1.147-0.313,2.538-0.452,3.859-0.452c2.33,0,4.069,0.487,5.286,1.669
			c1.147,1.183,1.635,2.748,1.635,4.59c0,2.991-1.392,4.938-3.756,6.016v0.07c1.738,0.521,2.643,2.19,3.164,5.251
			c0.521,3.234,1.009,5.216,1.322,5.946h-2.713c-0.348-0.695-0.8-2.921-1.252-5.808c-0.521-3.199-1.53-4.416-3.825-4.416h-1.043
			v10.224h-2.678V69.626z M140.149,80.441h1.112c2.573,0,4.277-1.878,4.277-4.695c0-2.712-1.112-4.381-3.999-4.417
			c-0.521,0-1.043,0.035-1.391,0.139V80.441z"/>
		<path class="st0" d="M160.25,81.589h-5.877v8.798h6.677v2.33h-9.354V69.279h8.937v2.33h-6.259v7.72h5.877V81.589z"/>
		<path class="st0" d="M164.006,92.717V69.279h2.539l4.312,10.989c0.974,2.503,2.191,5.633,2.991,8.172h0.069
			c-0.209-3.686-0.313-6.711-0.313-10.78v-8.38h2.4v23.438h-2.539l-4.451-11.267c-0.938-2.365-1.947-5.042-2.782-7.963h-0.069
			c0.209,3.13,0.278,6.121,0.278,11.128v8.103H164.006z"/>
		<path class="st0" d="M182.855,69.279v23.438h-2.678V69.279H182.855z"/>
		<path class="st0" d="M187.098,92.717V69.279h2.539l4.312,10.989c0.974,2.503,2.191,5.633,2.991,8.172h0.069
			c-0.209-3.686-0.313-6.711-0.313-10.78v-8.38h2.4v23.438h-2.539l-4.451-11.267c-0.938-2.365-1.947-5.042-2.782-7.963h-0.069
			c0.209,3.13,0.278,6.121,0.278,11.128v8.103H187.098z"/>
		<path class="st0" d="M214.814,92.125c-1.009,0.417-2.678,0.8-4.173,0.8c-2.052,0-3.964-0.556-5.529-2.295
			c-1.704-1.808-2.852-5.042-2.816-9.32c0.034-9.111,4.694-12.241,8.833-12.241c1.46,0,2.607,0.278,3.338,0.661l-0.591,2.295
			c-0.626-0.313-1.461-0.557-2.713-0.557c-2.921,0-6.086,2.33-6.086,9.598c0,7.233,2.748,9.563,5.564,9.563
			c0.904,0,1.426-0.174,1.635-0.278v-7.65h-3.025v-2.226h5.563V92.125z"/>
	</g>
	<g>
		<path class="st0" d="M36.658,26.564V0h4.729l4.099,10.405c0.788,2.05,2.089,5.479,2.838,7.765h0.079
			c-0.158-2.798-0.513-7.41-0.513-12.297V0h4.532v26.564h-4.729l-4.06-10.09c-0.867-2.247-2.089-5.597-2.68-8.001h-0.079
			c0.118,2.68,0.315,6.779,0.315,12.1v5.991H36.658z"/>
	</g>
	<g>
		
			<rect x="-4.908" y="48.681" transform="matrix(0.7071 -0.7071 0.7071 0.7071 -22.4372 46.1928)" class="st0" width="98.899" height="3"/>
	</g>
	<g>
		
			<rect x="43.041" y="0.731" transform="matrix(0.7071 -0.7071 0.7071 0.7071 -22.4371 46.1925)" class="st0" width="3" height="98.899"/>
	</g>
	<g>
		<path class="st0" d="M0.749,56.468c1.064,0.591,2.877,1.024,4.375,1.024c2.443,0,3.626-1.261,3.626-2.995
			c0-1.931-1.183-2.877-3.429-4.335c-3.626-2.208-5.006-5.006-5.006-7.41c0-4.257,2.838-7.804,8.396-7.804
			c1.734,0,3.39,0.473,4.178,0.946l-0.828,4.454c-0.748-0.473-1.892-0.907-3.39-0.907c-2.207,0-3.271,1.34-3.271,2.759
			c0,1.577,0.788,2.404,3.665,4.139c3.508,2.128,4.809,4.809,4.809,7.607c0,4.848-3.587,8.04-8.789,8.04
			c-2.129,0-4.218-0.552-5.085-1.064L0.749,56.468z"/>
	</g>
	<g>
		<path class="st0" d="M78.891,35.185h11.548v4.493h-6.385v6.819h5.991v4.296h-5.991V61.75h-5.163V35.185z"/>
	</g>
	<g>
		<path class="st0" d="M41.86,98.461V88.292l-5.833-16.396h5.518l1.813,6.345c0.473,1.695,0.985,3.666,1.379,5.636h0.079
			c0.315-1.931,0.749-3.862,1.222-5.754l1.577-6.227h5.359l-5.951,16.199v10.366H41.86z"/>
	</g>
</g>
</svg>